# xmcd
# 
# Track frame offsets:
#     150
#     15315
#     40132
#     56512
#     70785
#     87160
#     93942
#     110972
#     130765
#     145995
#     160022
#     194317
# 
# Disc length: 2877
# 
# Revision: 0
# Processed by: cddbd v1.5.2PL0 Copyright (c) Steve Scherf et al.
# Submitted via: fre:ac v1.0.31
# 
DISCID=990b3b0c
DTITLE=Masters Of Reality - Masters Of Reality
DYEAR=1988
DGENRE=Rock
TTITLE0=The Candy Song
TTITLE1=Doraldin's Prophicies
TTITLE2=John Brown
TTITLE3=Gettin' High
TTITLE4=Magical Spell
TTITLE5=Theme For The Scientist Of The Invisible
TTITLE6=Domino
TTITLE7=The Blue Garden
TTITLE8=The Eyes Of Texas
TTITLE9=Lookin' To Get Right
TTITLE10=Kill The King
TTITLE11=Sleep Walkin'
EXTD=
EXTT0=
EXTT1=
EXTT2=
EXTT3=
EXTT4=
EXTT5=
EXTT6=
EXTT7=
EXTT8=
EXTT9=
EXTT10=
EXTT11=
PLAYORDER=
